<svg xmlns="http://www.w3.org/2000/svg" viewBox="0 0 720 240">
  <defs>
    <linearGradient id="shieldGrad" x1="0" y1="0" x2="0" y2="1">
      <stop offset="0%" stop-color="#a78bfa"/>
      <stop offset="50%" stop-color="#6366f1"/>
      <stop offset="100%" stop-color="#3b82f6"/>
    </linearGradient>
    <linearGradient id="tecGrad" x1="0" y1="0" x2="1" y2="0">
      <stop offset="0%" stop-color="#60a5fa"/>
      <stop offset="50%" stop-color="#818cf8"/>
      <stop offset="100%" stop-color="#a78bfa"/>
    </linearGradient>
    <filter id="shieldGlow" x="-30%" y="-30%" width="160%" height="160%">
      <feGaussianBlur stdDeviation="6"/>
    </filter>
  </defs>
  <g transform="translate(8 -8) scale(0.92)">
    <path d="M128 22 L210 50 L210 134 C210 184 174 214 128 226 C82 214 46 184 46 134 L46 50 Z" fill="#6366f1" opacity="0.35" filter="url(#shieldGlow)"/>
    <path d="M128 22 L210 50 L210 134 C210 184 174 214 128 226 C82 214 46 184 46 134 L46 50 Z" fill="url(#shieldGrad)"/>
    <path d="M82 130 L114 162 L176 100" fill="none" stroke="#ffffff" stroke-width="16" stroke-linecap="round" stroke-linejoin="round"/>
  </g>
  <text x="240" y="135" font-family="-apple-system, BlinkMacSystemFont, 'Segoe UI', Inter, system-ui, sans-serif" font-weight="800" font-size="92" letter-spacing="-1.5" fill="#f1f5f9">Insure<tspan fill="url(#tecGrad)">Tec</tspan></text>
  <text x="242" y="172" font-family="-apple-system, BlinkMacSystemFont, 'Segoe UI', Inter, system-ui, sans-serif" font-weight="700" font-size="18" letter-spacing="6" fill="#94a3b8">DASHBOARD</text>
</svg>
